<?xml version="1.0" standalone="no"?>
<!DOCTYPE svg PUBLIC "-//W3C//DTD SVG 20010904//EN"
 "http://www.w3.org/TR/2001/REC-SVG-20010904/DTD/svg10.dtd">
<svg version="1.0" xmlns="http://www.w3.org/2000/svg"
 width="700.000000pt" height="700.000000pt" viewBox="0 0 700.000000 700.000000"
 preserveAspectRatio="xMidYMid meet">
<metadata>
Created by potrace 1.14, written by Peter Selinger 2001-2017
</metadata>
<g transform="translate(0.000000,700.000000) scale(0.100000,-0.100000)"
fill="#000000" stroke="none">
<path d="M1617 6124 c-1 -1 -40 -5 -87 -8 -214 -17 -438 -61 -644 -127 -134
-42 -176 -71 -211 -145 -18 -38 -19 -118 -19 -2164 l0 -2125 22 -47 c21 -45
58 -80 111 -108 44 -23 129 -16 236 18 55 18 109 34 120 37 11 2 61 13 110 24
50 11 110 23 135 26 25 3 61 8 80 11 79 13 467 12 570 -2 350 -46 685 -163
972 -340 51 -32 98 -62 103 -66 6 -4 44 -33 85 -64 41 -32 92 -72 112 -90 90
-80 161 -104 247 -82 24 6 77 41 142 94 105 86 237 180 319 228 234 137 531
250 765 291 22 4 51 9 65 11 14 3 32 7 40 9 109 29 598 26 745 -5 22 -5 58
-11 79 -14 54 -9 172 -39 291 -76 110 -34 158 -34 225 0 46 23 91 81 105 135
12 50 13 4210 0 4265 -12 55 -60 116 -107 138 -95 46 -414 128 -567 147 -30 4
-62 8 -72 10 -115 22 -546 22 -680 0 -13 -2 -42 -6 -64 -10 -189 -28 -325 -60
-503 -121 -294 -100 -579 -249 -793 -416 -20 -15 -42 -28 -48 -28 -6 0 -47 27
-91 59 -340 252 -847 457 -1255 507 -16 2 -46 6 -65 8 -91 13 -463 29 -473 20z
m368 -447 c17 -4 55 -9 85 -12 30 -3 66 -7 80 -10 14 -3 39 -8 55 -10 203 -35
479 -134 690 -248 99 -53 288 -178 348 -229 l39 -33 -1 -1750 c0 -963 0 -1776
-1 -1807 l0 -58 -68 44 c-191 122 -606 291 -812 330 -14 2 -56 11 -95 19 -38
8 -92 18 -118 22 -27 3 -59 8 -70 11 -124 24 -606 25 -732 0 -11 -2 -40 -7
-65 -10 -25 -3 -56 -8 -70 -11 -14 -3 -47 -10 -75 -15 -27 -4 -57 -11 -66 -15
-14 -5 -15 173 -15 1846 l1 1852 37 13 c20 7 81 22 135 33 94 19 124 23 278
40 80 8 395 7 440 -2z m3500 0 c22 -3 63 -9 90 -12 90 -10 301 -55 323 -69 7
-4 10 -3696 4 -3703 -1 -1 -16 2 -33 7 -67 20 -226 44 -389 60 -85 8 -453 5
-500 -4 -14 -2 -50 -7 -80 -10 -30 -3 -66 -8 -80 -10 -14 -3 -42 -7 -64 -10
-282 -43 -680 -189 -943 -348 l-93 -56 0 56 c-1 32 -1 844 -1 1807 l0 1750 38
33 c140 120 484 310 688 382 171 59 405 111 565 126 41 3 76 7 78 9 5 4 359
-3 397 -8z"/>
</g>
</svg>
